<?xml version="1.0" encoding="utf-8"?>
<svg id="master-artboard" viewBox="0 0 1400 980" version="1.1" xmlns="http://www.w3.org/2000/svg" x="0px" y="0px" style="enable-background:new 0 0 1400 980;" width="1400px" height="980px"><rect id="ee-background" x="0" y="0" width="1400" height="980" style="fill: white; fill-opacity: 0; pointer-events: none;"/><g transform="matrix(0.98, 0, 0, 0.98, 209.9999901618421, 0)"><defs><style id="ee-google-fonts">@import url(https://fonts.googleapis.com/css?family=Bowlby+One+SC:400);</style></defs><title>stisla-fill</title><path d="M 1000 500 A 500 500 0 0 1 500 1000 A 500 500 0 0 1 0 500 A 500 500 0 0 1 500 0 A 500 500 0 0 1 1000 500 Z" class="cls-1" style="fill: white;"/></g><path d="M 2.0899999141693115 4.600000381469727 C 2.0899999141693115 2.373332977294922 2.323333263397217 1.1299991607666016 2.7899999618530273 0.8700008392333984 C 2.9233334064483643 0.89666748046875 3.113333225250244 0.9099998474121094 3.359999895095825 0.9099998474121094 L 4.019999980926514 0.9099998474121094 C 4.446666717529297 0.9099998474121094 5.143333435058594 0.89666748046875 6.110000133514404 0.8700008392333984 C 7.083333492279053 0.8433341979980469 7.823333263397217 0.8299999237060547 8.329999923706055 0.8299999237060547 C 10.270000457763672 0.8299999237060547 11.83666706085205 0.9066658020019531 13.029999732971191 1.0599994659423828 C 14.229999542236328 1.2199993133544922 14.90333366394043 1.5133342742919922 15.050000190734863 1.9400005340576172 L 14.8100004196167 23.100000381469727 L 15.260000228881836 23.100000381469727 C 16.35333251953125 23.046667098999023 17.116666793823242 23.023334503173828 17.549999237060547 23.029998779296875 C 17.989999771118164 23.036666870117188 18.793333053588867 23.06333351135254 19.959999084472656 23.110000610351562 C 21.133333206176758 23.156665802001953 22.260000228881836 23.18000030517578 23.34000015258789 23.18000030517578 C 24.226667404174805 23.18000030517578 24.886667251586914 23.233333587646484 25.31999969482422 23.34000015258789 C 25.746665954589844 23.439998626708984 25.959999084472656 23.64666748046875 25.959999084472656 23.959999084472656 L 25.959999084472656 31.84000015258789 C 25.786666870117188 32.32666778564453 22.739999771118164 32.56999969482422 16.81999969482422 32.56999969482422 L 2.630000114440918 32.56999969482422 C 2.2966666221618652 32.0966682434082 2.130000114440918 31.33333396911621 2.130000114440918 30.280000686645508 L 2.130000114440918 24.450000762939453 C 2.130000114440918 22.743331909179688 2.1433334350585938 20.21666717529297 2.1700000762939453 16.869998931884766 C 2.196666717529297 13.516666412353516 2.2100000381469727 10.986665725708008 2.2100000381469727 9.280000686645508 C 2.2100000381469727 8.966667175292969 2.190000057220459 8.270000457763672 2.1500000953674316 7.190000534057617 C 2.109999895095825 6.1100006103515625 2.0899999141693115 5.246665954589844 2.0899999141693115 4.600000381469727 ZM 57.2618408203125 21.010000228881836 C 57.02851104736328 23.05666732788086 56.48851013183594 24.869998931884766 55.641841888427734 26.450000762939453 C 54.788509368896484 28.030000686645508 53.70184326171875 29.316665649414062 52.38184356689453 30.309999465942383 C 51.05517578125 31.296667098999023 49.54517364501953 32.0433349609375 47.851844787597656 32.54999923706055 C 46.16517639160156 33.05666732788086 44.32517623901367 33.310001373291016 42.33184051513672 33.310001373291016 C 40.47184371948242 33.310001373291016 38.775177001953125 33.11000061035156 37.241844177246094 32.709999084472656 C 35.70851135253906 32.3033332824707 34.41517639160156 31.766666412353516 33.36184310913086 31.100000381469727 C 32.31517791748047 30.426666259765625 31.38850975036621 29.610000610351562 30.58184242248535 28.649999618530273 C 29.775175094604492 27.683334350585938 29.13184356689453 26.690000534057617 28.65184211730957 25.670000076293945 C 28.171842575073242 24.656665802001953 27.785175323486328 23.543333053588867 27.49184226989746 22.329999923706055 C 27.198509216308594 21.123332977294922 26.99850845336914 19.996665954589844 26.891841888427734 18.950000762939453 C 26.79184341430664 17.90333366394043 26.74184226989746 16.81333351135254 26.74184226989746 15.680000305175781 L 26.74184226989746 13.870000839233398 C 26.8818416595459 11.876667022705078 27.345176696777344 10.083333969116211 28.13184356689453 8.489999771118164 C 28.9251766204834 6.89666748046875 29.891841888427734 5.6100006103515625 31.031843185424805 4.629999160766602 C 32.16517639160156 3.656665802001953 33.46184158325195 2.843334197998047 34.921844482421875 2.190000534057617 C 36.38850784301758 1.5433330535888672 37.81184387207031 1.0933341979980469 39.19184112548828 0.8400001525878906 C 40.571842193603516 0.5866661071777344 41.94517517089844 0.45999908447265625 43.31184387207031 0.45999908447265625 C 45.5118408203125 0.45999908447265625 47.45851135253906 0.7233333587646484 49.15184020996094 1.25 C 50.83850860595703 1.7766666412353516 52.21517562866211 2.5166664123535156 53.28184509277344 3.469999313354492 C 54.3485107421875 4.430000305175781 55.18184280395508 5.530000686645508 55.78184509277344 6.770000457763672 C 56.38184356689453 8.003334045410156 56.765174865722656 9.386667251586914 56.93184280395508 10.920000076293945 L 56.93184280395508 12.889999389648438 C 56.93184280395508 13.323333740234375 55.42850875854492 13.540000915527344 52.421844482421875 13.540000915527344 C 51.70851135253906 13.540000915527344 50.718509674072266 13.526666641235352 49.45184326171875 13.5 C 48.19184112548828 13.473333358764648 47.36184310913086 13.459999084472656 46.96184539794922 13.459999084472656 C 46.89517593383789 13.459999084472656 46.79184341430664 13.466667175292969 46.65184020996094 13.479999542236328 C 46.51850891113281 13.49333381652832 46.41851043701172 13.5 46.351844787597656 13.5 C 45.991844177246094 13.5 45.721839904785156 13.35333251953125 45.54184341430664 13.059999465942383 C 45.35517501831055 12.766666412353516 45.231842041015625 12.406665802001953 45.171844482421875 11.979999542236328 C 45.10517501831055 11.559999465942383 45.02851104736328 11.136667251586914 44.94184112548828 10.709999084472656 C 44.85517501831055 10.290000915527344 44.671844482421875 9.933332443237305 44.391841888427734 9.639999389648438 C 44.11184310913086 9.34666633605957 43.72517395019531 9.200000762939453 43.231842041015625 9.200000762939453 C 42.73851013183594 9.200000762939453 42.308509826660156 9.280000686645508 41.94184112548828 9.440000534057617 C 41.56850814819336 9.606666564941406 41.27184295654297 9.863332748413086 41.051841735839844 10.209999084472656 C 40.83850860595703 10.55666732788086 40.65850830078125 10.90999984741211 40.5118408203125 11.270000457763672 C 40.37184143066406 11.623332977294922 40.26850891113281 12.083333969116211 40.20184326171875 12.649999618530273 C 40.141841888427734 13.216667175292969 40.101844787597656 13.696666717529297 40.08184051513672 14.09000015258789 C 40.06184387207031 14.476667404174805 40.04517364501953 14.996665954589844 40.03184127807617 15.649999618530273 C 40.01850891113281 16.296667098999023 40.00517654418945 16.770000457763672 39.991844177246094 17.06999969482422 C 39.991844177246094 17.23666763305664 39.97850799560547 17.536666870117188 39.95184326171875 17.970001220703125 C 39.925174713134766 18.40999984741211 39.911842346191406 18.766666412353516 39.911842346191406 19.040000915527344 C 39.911842346191406 22.446666717529297 40.81184387207031 24.196666717529297 42.61184310913086 24.290000915527344 C 43.10517501831055 24.290000915527344 43.508506774902344 24.113332748413086 43.821842193603516 23.760000228881836 C 44.141841888427734 23.399999618530273 44.3585090637207 23.003334045410156 44.471839904785156 22.56999969482422 C 44.585174560546875 22.130001068115234 44.718509674072266 21.666667938232422 44.87184143066406 21.18000030517578 C 45.01850891113281 20.69333267211914 45.18184280395508 20.36333465576172 45.36184310913086 20.189998626708984 L 56.52184295654297 20.189998626708984 C 56.968509674072266 20.229999542236328 57.21517562866211 20.503334045410156 57.2618408203125 21.010000228881836 Z" transform="matrix(11.861329078674316, 0, 0, 11.861329078674316, 359.7598571777344, 275.2262878417969)" style="fill: rgb(103, 119, 239); white-space: pre; color: rgb(103, 119, 239);"/></svg>